<svg xmlns="http://www.w3.org/2000/svg" xmlns:xlink="http://www.w3.org/1999/xlink" width="132" height="38" viewBox="0 0 132 38">
  <defs>
    <linearGradient id="linear-gradient" x1="0.5" x2="0.5" y2="1" gradientUnits="objectBoundingBox">
      <stop offset="0" stop-color="#0083b0"/>
      <stop offset="1" stop-color="#00b4db"/>
    </linearGradient>
    <linearGradient id="linear-gradient-2" x1="0.5" x2="0.5" y2="1" gradientUnits="objectBoundingBox">
      <stop offset="0" stop-color="#8f94fb"/>
      <stop offset="1" stop-color="#4e54c8"/>
    </linearGradient>
  </defs>
  <g id="logo" transform="translate(-510 -323)">
    <path id="Logo_Bg" data-name="Logo Bg" d="M0,0H98a6,6,0,0,1,6,6V32a6,6,0,0,1-6,6H0a0,0,0,0,1,0,0V0A0,0,0,0,1,0,0Z" transform="translate(538 323)" fill="url(#linear-gradient)"/>
    <g id="Logo_Icon" data-name="Logo Icon" transform="translate(510 323)">
      <path id="book_bg_1" data-name="book bg 1" d="M0,0H23.231V35.689H0Z" transform="translate(7.969 1.365)" fill="url(#linear-gradient-2)"/>
      <rect id="book_bg_2" data-name="book bg 2" width="8" height="35" rx="1" transform="translate(1 1)" fill="url(#linear-gradient-2)"/>
      <path id="_172916604116313442884150" data-name="172916604116313442884150" d="M35.805,2.5H10.042A3.549,3.549,0,0,0,6.5,6.042V36.958A3.549,3.549,0,0,0,10.042,40.5H35.805a3.549,3.549,0,0,0,3.542-3.542V6.042A3.549,3.549,0,0,0,35.805,2.5ZM30.7,4.432v7.156L28.765,9.836a.966.966,0,0,0-1.288,0l-1.932,1.752V4.432ZM8.432,36.958V6.042a1.61,1.61,0,0,1,1.61-1.61h3.542V38.568H10.042a1.61,1.61,0,0,1-1.61-1.61Zm28.983,0a1.61,1.61,0,0,1-1.61,1.61H15.517V4.432h8.1v9.339a.966.966,0,0,0,1.617.715l2.892-2.647,2.892,2.628a.96.96,0,0,0,.644.251.94.94,0,0,0,.393-.084.966.966,0,0,0,.58-.863V4.432h3.175a1.61,1.61,0,0,1,1.61,1.61Z" transform="translate(-6.5 -2.5)" fill="#fc0"/>
      <g id="wifi" transform="translate(11.239 18.781)">
        <path id="Path_1" data-name="Path 1" d="M5,12.021a8.718,8.718,0,0,1,11.159,0" transform="translate(-2.163 -6.04)" fill="none" stroke="#fc0" stroke-linecap="round" stroke-linejoin="round" stroke-width="2"/>
        <path id="Path_2" data-name="Path 2" d="M1.42,8.171a12.681,12.681,0,0,1,16.77,0" transform="translate(-1.42 -5.003)" fill="none" stroke="#fc0" stroke-linecap="round" stroke-linejoin="round" stroke-width="2"/>
        <path id="Path_3" data-name="Path 3" d="M8.53,15.88a4.755,4.755,0,0,1,5.508,0" transform="translate(-2.895 -7.077)" fill="none" stroke="#fc0" stroke-linecap="round" stroke-linejoin="round" stroke-width="2"/>
        <line id="Line_1" data-name="Line 1" transform="translate(8.385 11.886)" fill="none" stroke="#fc0" stroke-linecap="round" stroke-linejoin="round" stroke-width="2"/>
      </g>
    </g>
    <text id="Schoolify" transform="translate(591 349)" fill="#fff" font-size="20" font-family="LobsterTwo-Bold, Lobster Two" font-weight="700" letter-spacing="0.043em"><tspan x="-39.23" y="0">Schoolify</tspan></text>
  </g>
</svg>
